# xmcd
#
# Track frame offsets: 
#        150
#        15164
#        33224
#        45172
#        55435
#        71134
#        88144
#        104437
#        128275
#        147429
#        162460
#        172575
#
# Disc length: 2580 seconds
#
# Revision: 0
# Processed by: cddbd v1.5.2PL0 Copyright (c) Steve Scherf et al.
# Submitted via: ExactAudioCopyFreeDBPlugin 1.0
#
DISCID=900a120c
DTITLE=Bob Wayne - Back To The Camper
DYEAR=2014
DGENRE=Country
TTITLE0=Sam Tucker
TTITLE1=20 Miles To Juarez (Featuring Elizabeth Cook)
TTITLE2=The River (Featuring Amanda Contreras)
TTITLE3=Til' I Die
TTITLE4=Dope Train (Featuring Red Simpson)
TTITLE5=Evangeline
TTITLE6=Hillbilly Heaven
TTITLE7=Granuaile
TTITLE8=Showdown (Featuring Molly Conley)
TTITLE9=I Just Got Out
TTITLE10=Violent Side Of Me
TTITLE11=Revelation
EXTD=
EXTT0=
EXTT1=
EXTT2=
EXTT3=
EXTT4=
EXTT5=
EXTT6=
EXTT7=
EXTT8=
EXTT9=
EXTT10=
EXTT11=
PLAYORDER=
